<svg xmlns="http://www.w3.org/2000/svg" viewBox="0 0 500 500"><g id="freepik--background-complete--inject-63"><path d="M356.7,422a7.8,7.8,0,0,1,5.1,3.35,13.85,13.85,0,0,1,2.15,5.85c.61,4-.53,8.53-2.06,12.28-4.05-2-6.16-6.74-7.07-9.23-1.45-3.94-1.68-11.93,1.88-12.25" style="fill:#ebebeb"></path><path d="M367.44,448.81a6.67,6.67,0,0,1,.41-6.67,8.85,8.85,0,0,1,5.76-3.68,3.72,3.72,0,0,1,3.1.49,2.82,2.82,0,0,1,.8,2.77,5.73,5.73,0,0,1-1.51,2.59c-2.35,2.55-5.09,4.59-8.56,4.5" style="fill:#ebebeb"></path><path d="M366.49,461.87a4.16,4.16,0,0,1-.1-.83c-.05-.59-.12-1.35-.2-2.27a23.64,23.64,0,0,1,.36-7.5,14.23,14.23,0,0,1,3.51-6.6,9.53,9.53,0,0,1,1.78-1.44,5.16,5.16,0,0,1,.54-.31c.12-.06.19-.09.2-.08a13.19,13.19,0,0,0-5.75,8.5,25.28,25.28,0,0,0-.43,7.42c.05,1,.09,1.73.1,2.27A5,5,0,0,1,366.49,461.87Z" style="fill:#e0e0e0"></path><path d="M357.41,428a1.61,1.61,0,0,1,.13.34l.34,1c.28.86.67,2.1,1.15,3.65.94,3.08,2.19,7.36,3.47,12.12s2.32,9.1,3,12.25c.36,1.57.64,2.85.83,3.73.08.42.15.76.2,1a1.89,1.89,0,0,1,.05.36,2.93,2.93,0,0,1-.11-.35c-.06-.26-.15-.59-.25-1-.23-.91-.54-2.17-.92-3.71-.77-3.13-1.85-7.45-3.13-12.21s-2.49-9-3.38-12.14l-1.06-3.68c-.12-.41-.21-.74-.28-1A1.9,1.9,0,0,1,357.41,428Z" style="fill:#e0e0e0"></path><path d="M362.42,452.72a15.58,15.58,0,0,0-11.2-8.78c-1.23-.23-2.75-.18-3.43.88s-.08,2.46.67,3.48a13.3,13.3,0,0,0,14,4.76" style="fill:#ebebeb"></path><path d="M352.76,447.48a3.7,3.7,0,0,1,.77.12,7.21,7.21,0,0,1,.9.2c.34.1.75.19,1.17.35s.9.32,1.38.55a14.55,14.55,0,0,1,1.51.78,17,17,0,0,1,3.12,2.34,16.44,16.44,0,0,1,2.46,3,13.93,13.93,0,0,1,.82,1.49,11.53,11.53,0,0,1,.58,1.36,11.2,11.2,0,0,1,.38,1.17,5.84,5.84,0,0,1,.21.89,3.65,3.65,0,0,1,.12.78c-.06,0-.24-1.1-.9-2.76a11,11,0,0,0-.61-1.33,13.76,13.76,0,0,0-.83-1.46,17.46,17.46,0,0,0-2.43-3,18.8,18.8,0,0,0-3.05-2.32c-.52-.29-1-.57-1.49-.79s-.93-.4-1.34-.57C353.85,447.72,352.74,447.54,352.76,447.48Z" style="fill:#e0e0e0"></path><path d="M426.11,385.39a91.35,91.35,0,0,1-6.6-7.12,94.08,94.08,0,0,1-6.21-7.46,182.13,182.13,0,0,1,12.81,14.58Z" style="fill:#e0e0e0"></path><path d="M430.14,385.31a74.19,74.19,0,0,1-3.93-8,76.51,76.51,0,0,1-3.45-8.25,76.16,76.16,0,0,1,3.92,8A77.35,77.35,0,0,1,430.14,385.31Z" style="fill:#e0e0e0"></path><path d="M435.49,369.8c.16,0-.88,3.32-1.37,7.51s-.29,7.61-.45,7.62a7.83,7.83,0,0,1-.28-2.24,32.59,32.59,0,0,1,.21-5.45,33.33,33.33,0,0,1,1.09-5.33A8,8,0,0,1,435.49,369.8Z" style="fill:#e0e0e0"></path><path d="M253.88,473.28a13.76,13.76,0,0,1-1.94-1.85c-1.28-1.31-2.81-2.88-4.49-4.62l-4.5-4.62a15.41,15.41,0,0,1-1.79-2,13,13,0,0,1,2.05,1.73c1.21,1.12,2.85,2.71,4.61,4.52s3.3,3.49,4.39,4.73A13.81,13.81,0,0,1,253.88,473.28Z" style="fill:#e0e0e0"></path><path d="M260.56,473.61a91.51,91.51,0,0,1-5.34-8,89.38,89.38,0,0,1-4.91-8.28,91.63,91.63,0,0,1,5.35,8A88.31,88.31,0,0,1,260.56,473.61Z" style="fill:#e0e0e0"></path><path d="M267.83,456.71a19.46,19.46,0,0,1-.7,2.56,46.42,46.42,0,0,0-1.8,12.56,18.43,18.43,0,0,1-.05,2.65,10.56,10.56,0,0,1-.32-2.65,34.66,34.66,0,0,1,1.82-12.67A10.09,10.09,0,0,1,267.83,456.71Z" style="fill:#e0e0e0"></path><circle cx="420.35" cy="112.31" r="36.17" transform="translate(-11.48 165.54) rotate(-21.99)" style="fill:#e0e0e0"></circle><circle cx="420.35" cy="108.32" r="36.17" transform="translate(-9.98 165.25) rotate(-21.99)" style="fill:#ebebeb"></circle><circle cx="420.35" cy="108.32" r="24.23" style="fill:#fff"></circle><circle cx="420.35" cy="108.32" r="11.86" transform="translate(59.08 348.96) rotate(-48.12)" style="fill:#ebebeb"></circle><polygon points="449.44 77.69 448.45 69.97 456.31 61.56 456.87 69.89 449.44 77.69" style="fill:#ebebeb"></polygon><polygon points="466.3 71.55 458.33 70.9 450.34 78.58 458.33 79.44 466.3 71.55" style="fill:#ebebeb"></polygon><path d="M457.59,67.83,444.91,80.68l-20.13,20.4c-1.55,1.56-3.09,3.13-4.63,4.69s.82,3.78,2.29,2.29L435.13,95.2l20.13-20.39q2.31-2.36,4.63-4.69c1.46-1.49-.83-3.78-2.3-2.29Z" style="fill:#e0e0e0"></path><path d="M324.55,75c.6-4.39-5.6-8-10.26-8.39-2.23-.17-4.54.17-6.64-.57-4.57-1.59-6.39-7.48-10.84-9.36-3.33-1.41-7.16-.16-10.39,1.47s-6.42,3.67-10,3.9c-3.14.2-6.55-1-9.29.57-2,1.14-3.12,3.49-5,4.88s-4.25,1.65-6.54,1.78-4.65.14-6.74,1.1-3.8,3.15-3.37,5.4Z" style="fill:#ebebeb"></path><path d="M103.47,99c.57-4.15-5.27-7.55-9.67-7.91-2.09-.17-4.27.15-6.25-.54-4.3-1.5-6-7-10.22-8.82-3.13-1.32-6.74-.15-9.78,1.38s-6,3.46-9.45,3.68c-3,.19-6.16-.91-8.75.53-1.92,1.08-2.93,3.3-4.71,4.61s-4,1.55-6.16,1.67-4.38.14-6.35,1-3.58,3-3.18,5.09Z" style="fill:#ebebeb"></path><path d="M187.88,46.61c.45-3.26-4.15-5.93-7.6-6.21-1.65-.14-3.36.12-4.92-.43-3.38-1.18-4.73-5.54-8-6.93-2.46-1-5.3-.12-7.69,1.09s-4.75,2.71-7.42,2.88c-2.33.15-4.85-.71-6.88.43-1.52.84-2.31,2.59-3.71,3.62a8.84,8.84,0,0,1-4.84,1.31,13.72,13.72,0,0,0-5,.81c-1.54.71-2.82,2.34-2.5,4Z" style="fill:#f5f5f5"></path><path d="M111.76,166.28c.45-3.25-4.15-5.93-7.6-6.21-1.65-.13-3.36.12-4.92-.42-3.38-1.18-4.73-5.55-8-6.94-2.46-1-5.3-.11-7.69,1.09s-4.76,2.72-7.43,2.89c-2.32.15-4.84-.72-6.87.42-1.52.84-2.31,2.59-3.71,3.62A8.76,8.76,0,0,1,60.67,162a13.52,13.52,0,0,0-5,.82c-1.54.7-2.82,2.34-2.5,4Z" style="fill:#f5f5f5"></path><path d="M406.13,35.42c.45-3.26-4.15-5.94-7.6-6.21-1.65-.14-3.36.11-4.92-.43-3.38-1.18-4.73-5.54-8-6.93-2.46-1-5.3-.12-7.69,1.08s-4.75,2.72-7.42,2.89c-2.33.15-4.85-.71-6.88.42-1.52.85-2.31,2.59-3.71,3.62A8.85,8.85,0,0,1,355,31.18a13.72,13.72,0,0,0-5,.81c-1.54.71-2.82,2.34-2.5,4Z" style="fill:#f5f5f5"></path><path d="M347,130.24c.45-3.26-4.15-5.93-7.6-6.21-1.65-.13-3.36.12-4.92-.43-3.38-1.17-4.73-5.54-8-6.93-2.47-1-5.31-.12-7.7,1.09s-4.75,2.71-7.42,2.88c-2.33.15-4.85-.71-6.88.43-1.51.84-2.31,2.59-3.7,3.62a8.89,8.89,0,0,1-4.84,1.31,13.78,13.78,0,0,0-5,.81c-1.54.71-2.82,2.34-2.5,4Z" style="fill:#f5f5f5"></path><polygon points="129.25 217.93 175.2 170.43 188.08 174.79 233.13 250.39 259.78 264.02 282.58 330.31 212.6 326.69 129.25 217.93" style="fill:#e0e0e0"></polygon></g><g id="freepik--Floor--inject-63"><path d="M491.89,303.76c.05.13-108.49,41.65-242.4,92.71S6.93,488.84,6.87,488.7,115.34,447.06,249.3,396,491.84,303.62,491.89,303.76Z" style="fill:#263238"></path></g><g id="freepik--Moutains--inject-63"><path d="M401.76,61.19a28.16,28.16,0,0,1-6.59.63,12.94,12.94,0,0,1-8.71-3.45c-2.58-2.56-3.91-6.48-6.74-8.7-2.53-2-6.45-1.9-9.18-.25v18c1.38-1.08,3.94-3.27,7.85-1.35,1.54.76,2.93,1.59,4.42,2.48,4.18,2.51,8.48,2.31,12.88.34a20.23,20.23,0,0,0,6.7-5.34C403.67,62.15,402.66,61,401.76,61.19Z" style="fill:#FF725E"></path><path d="M370.54,45.87c.14,0,.26,9,.26,20.05s-.12,20-.26,20-.26-9-.26-20S370.39,45.87,370.54,45.87Z" style="fill:#263238"></path><polygon points="475.65 197.4 450.49 186.39 381.67 87.53 363.2 80.85 288.16 163.2 267.32 174.6 189.03 256.04 168.82 274.65 276.79 385.39 492.72 303.11 492.72 232.91 475.65 197.4" style="fill:#ebebeb"></polygon><path d="M381.67,87.53,363.2,80.85l-38.55,42.3,39.87-32.39,11.19,15.89c.4-.13,4.68-6.85,4.68-6.85s20,14.68,19.76,14.28S381.67,87.53,381.67,87.53Z" style="fill:#fff"></path><polygon points="189.38 256.7 278.36 187.43 314.57 179.06 342.06 104.04 288.16 163.2 267.32 174.6 189.38 256.7" style="fill:#e0e0e0"></polygon><polygon points="450.49 186.39 469.93 204.17 492.72 232.91 475.65 197.4 450.49 186.39" style="fill:#e0e0e0"></polygon><path d="M189.38,256.7l.35-.39,1.06-1.14,4.16-4.43L210.76,234l56.4-59.55,0,0,0,0L288,163l-.06,0,60.08-66q7.56-8.31,14.95-16.41l.11-.13.17.06,18.47,6.69.07,0,.05.06,68.76,98.91-.08-.06,25.14,11,.05,0,0,.05,11.61,24.28c1.32,2.8,2.34,4.95,3,6.41.33.72.59,1.27.77,1.64l.25.57s-.11-.18-.29-.55l-.8-1.63-3.11-6.38-11.72-24.22.07.07-25.17-11-.05,0,0,0c-18-25.89-42-60.19-68.88-98.81l.12.09-18.47-6.68.28-.07L348.44,97.43l-60.11,65.93,0,0,0,0L267.43,174.8l.06-.05L211,234.17l-15.9,16.66-4.21,4.38-1.08,1.12Z" style="fill:#263238"></path><path d="M138.77,179.05a35.37,35.37,0,0,1-8.13.79,16,16,0,0,1-10.72-4.26c-3.18-3.15-4.81-8-8.3-10.71-3.12-2.46-7.94-2.33-11.31-.31v22.21c1.71-1.34,4.86-4,9.67-1.66,1.9.93,3.62,1.95,5.45,3,5.14,3.09,10.44,2.84,15.85.42,2-.9,4.81-2.7,8.26-6.58C141.11,180.23,139.88,178.84,138.77,179.05Z" style="fill:#FF725E"></path><path d="M100.31,160.19c.15,0,.27,11.05.27,24.69s-.12,24.68-.27,24.68-.26-11.05-.26-24.68S100.17,160.19,100.31,160.19Z" style="fill:#263238"></path><polygon points="208.77 301.92 187.94 289.68 112.89 201.3 94.42 208.47 43.17 319.68 18.02 331.49 5.31 370.05 7.14 487.8 77.55 461.48 277.91 384.96 208.77 301.92" style="fill:#ebebeb"></polygon><polygon points="43.17 319.68 53.17 313.67 63.33 293.55 71.46 299.69 96.35 216.05 113.82 202.26 112.89 201.3 94.42 208.47 43.17 319.68" style="fill:#e0e0e0"></polygon><path d="M94.42,208.47l18.47-7.17,38.55,45.4s-31.77-28.06-32.18-28.06c0,0-3.13,10.52-3.53,10.38s-19-18.7-19-18.7l-7.55,9.57Z" style="fill:#fff"></path><path d="M277.91,385s-.45-.5-1.29-1.49l-3.71-4.41c-3.25-3.87-8-9.55-14.06-16.79L208.6,302.06l.06.05-20.84-12.22,0,0,0,0c-18.94-22.28-40.34-47.48-62.92-74.06L112.7,201.46l.29.08-18.48,7.17.14-.14C74.74,251.73,57,290.26,43.34,319.76l0,.06-.06,0L18.08,331.63l.08-.09-9.43,28.4c-1.1,3.28-1.95,5.81-2.52,7.53l-.66,1.93c-.15.44-.24.65-.24.65s.06-.22.2-.66.35-1.09.62-1.95l2.45-7.55c2.16-6.61,5.31-16.25,9.3-28.44l0-.06.05,0,25.14-11.85-.08.09L94.19,208.36l0-.09.1,0,18.47-7.18L113,201l.12.14,12.15,14.3,62.87,74.1-.06,0,20.83,12.25,0,0,0,0,50.11,60.33L273,379l3.66,4.44Z" style="fill:#263238"></path></g><g id="freepik--Rock--inject-63"><polygon points="87.44 411.87 94.57 381.32 126.63 332.82 151.97 326.62 185.92 364.24 216.15 371.88 262.47 391.21 69.53 464.81 72.9 439.2 87.44 411.87" style="fill:#f5f5f5"></polygon><path d="M87.44,411.86s-.31.62-.93,1.82L83.73,419,73,439.26v0c-.94,7.27-2.06,15.89-3.33,25.61l-.22-.17,185.58-70.9,7.32-2.79v.48l-46.32-19.33h0l-30.22-7.66h-.07l0-.06-33.93-37.63.21.06L126.68,333l.12-.08L94.68,381.39v0l-5.36,22.71c-.62,2.56-1.08,4.51-1.4,5.83s-.49,2-.49,2,.13-.67.43-2,.75-3.28,1.33-5.86c1.2-5.16,3-12.8,5.25-22.72v0l32-48.54,0-.06.08,0,25.33-6.22.12,0,.09.09,34,37.6L186,364l30.23,7.64h0L262.57,391l.6.25-.61.24-7.33,2.79L69.59,465l-.26.1,0-.27c1.29-9.72,2.44-18.34,3.41-25.6v-.05l10.82-20.23c1.25-2.3,2.2-4.06,2.84-5.26S87.44,411.86,87.44,411.86Z" style="fill:#263238"></path></g><g id="freepik--Plants--inject-63"><path d="M415.44,312.55a16.13,16.13,0,0,1,2.2,2.14,63.21,63.21,0,0,1,4.7,5.72,65.29,65.29,0,0,1,4,6.21,14.37,14.37,0,0,1,1.37,2.75,22.75,22.75,0,0,1-1.68-2.56c-1-1.59-2.45-3.77-4.15-6.09s-3.34-4.35-4.55-5.79A22.28,22.28,0,0,1,415.44,312.55Z" style="fill:#263238"></path><path d="M424.4,303.52a35.28,35.28,0,0,1,1,3.61c.59,2.24,1.46,5.31,2.56,8.67s2.2,6.36,3,8.52a32.27,32.27,0,0,1,1.27,3.54,3.4,3.4,0,0,1-.49-.89c-.28-.58-.66-1.44-1.12-2.51-.91-2.14-2.07-5.13-3.18-8.5s-1.92-6.48-2.42-8.74c-.25-1.14-.44-2.06-.54-2.7A3.57,3.57,0,0,1,424.4,303.52Z" style="fill:#263238"></path><path d="M439.5,309.31c.07,0-.42.84-.93,2.25a19.34,19.34,0,0,0-1.09,5.7c0,2.29-.16,4.4-.07,5.88a20.1,20.1,0,0,1,.15,2.44,8.19,8.19,0,0,1-.52-2.41,50.37,50.37,0,0,1-.08-5.93,16.66,16.66,0,0,1,1.27-5.82A6,6,0,0,1,439.5,309.31Z" style="fill:#263238"></path><path d="M156.17,433.56a38.08,38.08,0,0,0-4.95-4.65,38.67,38.67,0,0,0-6-3.24,5.81,5.81,0,0,1,2,.5,18.2,18.2,0,0,1,4.31,2.32,17.94,17.94,0,0,1,3.55,3.36A6,6,0,0,1,156.17,433.56Z" style="fill:#263238"></path><path d="M156.18,412.74c.09,0-.09,1.11-.12,2.89a24.22,24.22,0,0,0,.91,6.85,23.68,23.68,0,0,0,2.87,6.29c1,1.49,1.7,2.33,1.63,2.39a2.76,2.76,0,0,1-.58-.53,14.37,14.37,0,0,1-1.36-1.65,21,21,0,0,1-3.84-13.37,16,16,0,0,1,.28-2.12A2.32,2.32,0,0,1,156.18,412.74Z" style="fill:#263238"></path><path d="M166.51,418a13.29,13.29,0,0,1-.56,1.6,11.84,11.84,0,0,0-.56,4,11.59,11.59,0,0,0,.82,3.91,11.06,11.06,0,0,1,.66,1.56c-.05,0-.51-.45-1-1.41a9.74,9.74,0,0,1-1-4,9.84,9.84,0,0,1,.74-4.11A3.75,3.75,0,0,1,166.51,418Z" style="fill:#263238"></path><path d="M63.42,418.8a8.6,8.6,0,0,1,6.41,2.07,15.17,15.17,0,0,1,4,5.59c1.83,4.07,1.94,9.21,1.41,13.65-4.88-.91-8.52-5.36-10.22-7.74-2.69-3.76-5.27-12.19-1.59-13.57" style="fill:#FF725E"></path><path d="M82.7,444.2A7.32,7.32,0,0,1,81.19,437a9.69,9.69,0,0,1,5-5.59,4.07,4.07,0,0,1,3.43-.39,3.1,3.1,0,0,1,1.66,2.71,6.35,6.35,0,0,1-.84,3.2c-1.75,3.39-4.07,6.36-7.78,7.28" style="fill:#FF725E"></path><path d="M85.5,458.35a5.78,5.78,0,0,1-.35-.85l-.86-2.35a25.51,25.51,0,0,1-1.82-8.07,15.74,15.74,0,0,1,1.8-8.05,11.1,11.1,0,0,1,1.47-2c.19-.22.37-.37.48-.48s.18-.16.19-.15a17,17,0,0,0-1.94,2.79,16.31,16.31,0,0,0-1.68,7.93,27.75,27.75,0,0,0,1.71,8c.34,1,.6,1.82.77,2.39A5,5,0,0,1,85.5,458.35Z" style="fill:#263238"></path><path d="M66,425a3,3,0,0,1,.24.32c.16.25.38.56.64.95.55.83,1.33,2,2.29,3.54,1.91,3,4.49,7.18,7.23,11.87s5.14,9,6.82,12.12c.85,1.56,1.52,2.84,2,3.72l.51,1a1.68,1.68,0,0,1,.16.37,1.74,1.74,0,0,1-.21-.33l-.57-1c-.51-.9-1.2-2.15-2.06-3.67-1.73-3.11-4.15-7.38-6.89-12.07S70.79,433,68.93,430l-2.2-3.59c-.24-.4-.43-.73-.59-1A1.55,1.55,0,0,1,66,425Z" style="fill:#263238"></path><path d="M78.51,449.82A17.15,17.15,0,0,0,64,443.77c-1.38.12-3,.61-3.39,1.94s.64,2.64,1.73,3.5a14.68,14.68,0,0,0,16.24,1" style="fill:#FF725E"></path><path d="M66.71,447.08a4.09,4.09,0,0,1,.85-.1,7.54,7.54,0,0,1,1-.05,12.72,12.72,0,0,1,1.34,0,14.73,14.73,0,0,1,1.63.18,15.9,15.9,0,0,1,1.84.38,18.72,18.72,0,0,1,4,1.57,18.33,18.33,0,0,1,3.5,2.5,18.74,18.74,0,0,1,2.33,2.62c.31.4.52.8.74,1.13a8.49,8.49,0,0,1,.49.89,4,4,0,0,1,.35.79c-.06,0-.58-1.09-1.77-2.67a15,15,0,0,0-1-1.24,16.12,16.12,0,0,0-1.31-1.3,18.82,18.82,0,0,0-3.45-2.43,19.38,19.38,0,0,0-3.92-1.58c-.63-.16-1.23-.31-1.81-.4a14.23,14.23,0,0,0-1.59-.21C67.94,447,66.71,447.15,66.71,447.08Z" style="fill:#263238"></path></g><g id="freepik--Flag--inject-63"><path d="M478.82,163.63a74.71,74.71,0,0,1-17.28,1.68c-8.24-.34-16.66-3-22.8-9.05-6.77-6.7-10.25-17-17.66-22.8-6.64-5.22-16.9-5-24.05-.66V180c3.62-2.83,10.33-8.56,20.55-3.52,4.05,2,7.7,4.15,11.6,6.49,10.93,6.57,22.2,6,33.72.89,4.3-1.91,10.22-5.73,17.56-14C483.8,166.15,481.18,163.18,478.82,163.63Z" style="fill:#FF725E"></path><path d="M397.65,339.5V132.23c0-2.78.06-5.57,0-8.36v-.35a.63.63,0,0,0-1.25,0V330.14c0,2.95,0,5.91,0,8.86v.5a.63.63,0,0,0,1.25,0Z" style="fill:#263238"></path></g><g id="freepik--speech-bubble--inject-63"><path d="M208.42,130.42l-1.13-7.09a27.39,27.39,0,1,0-6.55,7.3h0Z" style="fill:#fff"></path><path d="M208.42,130.42l-.48,0-1.46.07-5.75.23a.1.1,0,0,1-.11-.1.14.14,0,0,1,0-.07h0l.15.14a27.1,27.1,0,0,1-12.06,5.42,28.2,28.2,0,0,1-8.74.15,27.61,27.61,0,0,1-9.41-3.18,28.23,28.23,0,0,1-8.32-7.16,27.13,27.13,0,0,1-5.15-10.7,28.21,28.21,0,0,1,0-12.63,27,27,0,0,1,6.1-11.74,28.34,28.34,0,0,1,5.07-4.55c.95-.6,1.9-1.21,2.88-1.73l1.51-.71.75-.35.78-.28a28.08,28.08,0,0,1,12.65-1.61,27,27,0,0,1,11.34,3.89,28.11,28.11,0,0,1,8.12,7.52,27.68,27.68,0,0,1,4.25,9c.16.77.32,1.53.47,2.28s.18,1.49.27,2.22a25.16,25.16,0,0,1,.06,4.24,27.24,27.24,0,0,1-4,12.54l0-.07c.34,2.29.6,4.07.78,5.3.08.58.15,1,.19,1.36s.06.45.06.45,0-.17-.1-.48-.14-.79-.24-1.38c-.21-1.21-.51-3-.9-5.22a.19.19,0,0,1,0-.07,27.29,27.29,0,0,0,3.89-12.45,24.68,24.68,0,0,0-.09-4.19c-.09-.71-.13-1.45-.28-2.19s-.31-1.48-.48-2.24A27.12,27.12,0,0,0,198,85.93a26.36,26.36,0,0,0-11.14-3.79,27.48,27.48,0,0,0-12.42,1.59l-.76.27-.74.35-1.48.7c-1,.51-1.89,1.11-2.83,1.7a28.34,28.34,0,0,0-5,4.46,26.56,26.56,0,0,0-6,11.52,27.73,27.73,0,0,0-.06,12.39,26.61,26.61,0,0,0,5,10.53,27.78,27.78,0,0,0,8.16,7.07,27.44,27.44,0,0,0,9.26,3.18,27.88,27.88,0,0,0,8.63-.1,27.39,27.39,0,0,0,12-5.25.11.11,0,0,1,.15,0,.1.1,0,0,1,0,.13v0l-.08-.17,5.68-.11,1.49,0Z" style="fill:#263238"></path><path d="M199,83H169c-.1.26-2.1,28.14,15,28.67C201.12,111.13,199.12,83.25,199,83Z" style="fill:#FF725E"></path><rect x="165.74" y="80.26" width="36.53" height="3.52" rx="1.36" style="fill:#FF725E"></rect><path d="M174.63,106.87c-5.41-1.42-9.06-5.36-10.54-11.41a26.55,26.55,0,0,1-.6-8.62l.11-.86h7.69v2h-5.91a25.25,25.25,0,0,0,.64,7.1c1.32,5.34,4.39,8.68,9.11,9.92Z" style="fill:#FF725E"></path><path d="M193.34,106.87l-.5-1.9c4.75-1.24,7.82-4.6,9.13-10a25.21,25.21,0,0,0,.63-7h-5.91V86h7.69l.11.86a26.39,26.39,0,0,1-.61,8.62C202.41,101.51,198.76,105.45,193.34,106.87Z" style="fill:#FF725E"></path><path d="M187,113.31a29.17,29.17,0,0,1-1-6h-4a29.17,29.17,0,0,1-1,6c-2.23,9-10.22,9.51-10.22,9.51v2.55h26.4v-2.55S189.23,122.33,187,113.31Z" style="fill:#FF725E"></path><path d="M200,83.66c0,.14-7.1.26-15.84.26s-15.84-.12-15.84-.26,7.09-.26,15.84-.26S200,83.52,200,83.66Z" style="fill:#263238"></path><path d="M196,103a5.82,5.82,0,0,1-.43,1.15,14.62,14.62,0,0,1-1.81,2.83,12.81,12.81,0,0,1-3.89,3.14,12.58,12.58,0,0,1-5.95,1.37A12.26,12.26,0,0,1,178,110a12.73,12.73,0,0,1-3.76-3.28,17.63,17.63,0,0,1-1.82-2.82,4.75,4.75,0,0,1-.49-1.12c.09-.06.82,1.55,2.59,3.71a13.31,13.31,0,0,0,3.71,3.09,12.11,12.11,0,0,0,5.69,1.44,12.49,12.49,0,0,0,5.73-1.28,13,13,0,0,0,3.82-3A24.48,24.48,0,0,0,196,103Z" style="fill:#263238"></path><path d="M184.81,91l1,2.11a.88.88,0,0,0,.67.48l2.33.34a.88.88,0,0,1,.49,1.5L187.65,97a.86.86,0,0,0-.25.78l.4,2.32a.89.89,0,0,1-1.29.93l-2.08-1.1a.91.91,0,0,0-.82,0l-2.08,1.1a.89.89,0,0,1-1.29-.93l.4-2.32a.86.86,0,0,0-.25-.78l-1.69-1.65a.88.88,0,0,1,.49-1.5l2.33-.34a.88.88,0,0,0,.67-.48l1-2.11A.88.88,0,0,1,184.81,91Z" style="opacity:0.30000000000000004"></path><path d="M196.71,122.93c0,.14-5.85.26-13.06.26s-13.06-.12-13.06-.26,5.84-.26,13.06-.26S196.71,122.78,196.71,122.93Z" style="fill:#263238"></path></g><g id="freepik--Character--inject-63"><path d="M321.89,215.25c.32,0,4-.37,4.76-1.41a2.58,2.58,0,0,0,.08-2.4,4.19,4.19,0,0,0,1.45-2.33,4.46,4.46,0,0,0-.81-2.66l.36-1.19a2.43,2.43,0,0,0-.32-2.52,4.49,4.49,0,0,1-1.65-2.16c-.36-1.3-4.42-1.84-6.39-2.23s-4.61-.95-6.63,1.5c-2.71,3.29-7.29,8.48-7.29,8.48l3.86,10.54s1.73,1,5.58.07A19.7,19.7,0,0,0,321.89,215.25Z" style="fill:#ffbf9d"></path><polygon points="319.63 213.19 346.39 359.01 347.49 358.64 322.56 210.73 319.63 213.19" style="fill:#455a64"></polygon><path d="M317.75,207.52s-1.94-5.6-4.17-7.79-4.23-3.16-1.81-4.79,8.51-4,9.19-2.16-.17,1-.43,2.49,2.54,7.95,3.35,10.6,3.88,11,2.77,11.68c-.79.47-4.72.9-6.87,1.11a1.37,1.37,0,0,1-1.5-1.29Z" style="fill:#263238"></path><path d="M331.29,208.51a13.13,13.13,0,0,0-7.88-9.85c-5-2-4.32-1.21-4.32-1.21l-.56,2.11c6.43-.28,9,5.08,9.78,6.22,1,1.43,1.7,4.86.38,5.64s-4.26-.76-4.26-.76l-1.67,1.24s4.62,2.63,6.71,2.62S332,212.33,331.29,208.51Z" style="fill:#263238"></path><path d="M335.64,280.67a2.34,2.34,0,1,1-2.42-2.26A2.35,2.35,0,0,1,335.64,280.67Z" style="fill:#455a64"></path><path d="M343.72,327.19a2,2,0,1,1-2.1-2A2,2,0,0,1,343.72,327.19Z" style="fill:#455a64"></path><path d="M326.29,206.66a17.63,17.63,0,0,1-4.05.93c-.64.07-1.28.1-1.92.23a3.9,3.9,0,0,0-1.76.75,2.24,2.24,0,0,0-.88,1.65,1.57,1.57,0,0,0,1,1.51,1.46,1.46,0,0,0-.72,1.71,2.26,2.26,0,0,0,1.37,1.4,5.55,5.55,0,0,0,2,.33,13.52,13.52,0,0,0,3-.23,4,4,0,0,0,2.28-1.17,1.85,1.85,0,0,0,.08-2.37,2.78,2.78,0,0,0,1-1.76" style="fill:#ffbf9d"></path><path d="M318.05,207.32a1.92,1.92,0,0,1-1.15-1.87c.11-.9,1-1.49,1.85-1.82a19,19,0,0,1,6.39-.91l1.05.63a5,5,0,0,1,.5,1.35,1.62,1.62,0,0,1-.33,1.35,2.47,2.47,0,0,1-1.22.6,18.86,18.86,0,0,1-4.12.91A7.21,7.21,0,0,1,318.05,207.32Z" style="fill:#ffbf9d"></path><path d="M326.73,211.44a11,11,0,0,0-2.19-.09c-1.35,0-3.22,0-5.28.09l-.77,0-.23,0a.56.56,0,0,0-.26.15,1,1,0,0,0-.24.42,3.36,3.36,0,0,0,.08,1.5,1.91,1.91,0,0,0,.78,1.13,3.14,3.14,0,0,0,1.06.47,5.6,5.6,0,0,0,1.62.18c.39,0,.6-.05.59-.08s-.85,0-2.11-.41a2,2,0,0,1-1.52-1.39,2.75,2.75,0,0,1-.06-1.27.38.38,0,0,1,.11-.22c.07-.05,0,0,.2,0l.77,0c2.06-.06,3.92-.15,5.27-.23A10.28,10.28,0,0,0,326.73,211.44Z" style="fill:#ff9a6c"></path><path d="M327.37,206.45a7.69,7.69,0,0,0-1.83.17c-1.12.16-2.68.42-4.4.72H321a5,5,0,0,0-2.51.72,2.15,2.15,0,0,0-1,1.9,2.64,2.64,0,0,0,.49,1.36c.2.27.35.39.37.37s-.07-.18-.21-.46a2.77,2.77,0,0,1-.32-1.27,1.83,1.83,0,0,1,.9-1.55,4.8,4.8,0,0,1,2.29-.61h.22c1.71-.31,3.26-.62,4.37-.86A7.48,7.48,0,0,0,327.37,206.45Z" style="fill:#ff9a6c"></path><path d="M327.41,202.74a14.85,14.85,0,0,0-2.57,1l.07,0c-1.47,0-3.46,0-5.64,0l-1.4,0h-.11l-.06.07a4.39,4.39,0,0,0-.8,1.29,2.16,2.16,0,0,0-.07,1.44,1.58,1.58,0,0,0,.89,1,3.36,3.36,0,0,0,1,.24,6,6,0,0,0,1.49-.06c.34-.06.53-.12.52-.15s-.77.07-2-.09c-.57-.08-1.39-.28-1.59-1a2.58,2.58,0,0,1,.82-2.28l-.16.07,1.41,0c2.18,0,4.16-.06,5.64-.12H325A15.2,15.2,0,0,0,327.41,202.74Z" style="fill:#ff9a6c"></path><path d="M308.49,207.81s4.94-7.39,5.18-7.51,8.15-1.14,10-.34,4,1.94,4,1.94.27,2-2.88,2.18-6.42.07-6.42.07l-1.72,2.52s.7,6.74-5.27,8.64" style="fill:#ffbf9d"></path><path d="M311.35,215.31a7.05,7.05,0,0,0,.75-.24,4.52,4.52,0,0,0,.86-.4A6.92,6.92,0,0,0,314,214a7.35,7.35,0,0,0,2-2.82,10.19,10.19,0,0,0,.72-4.48l0,.12,1.74-2.51-.16.09c1.52,0,3.13,0,4.82,0a18.15,18.15,0,0,0,2.6-.18,3.24,3.24,0,0,0,1.28-.56,2,2,0,0,0,.78-1.23,1.73,1.73,0,0,0,0-.51v-.11l-.11,0-2.19-1.06-1.07-.52a7.29,7.29,0,0,0-1.09-.47,9.72,9.72,0,0,0-2.31-.2c-.75,0-1.47,0-2.18.07-1.42.1-2.75.24-4,.4l-.93.14-.23,0-.14,0-.13.12c-.11.14-.19.24-.28.37l-.95,1.38c-1.2,1.76-2.14,3.21-2.79,4.21l-.73,1.16a2.42,2.42,0,0,0-.23.42,2.39,2.39,0,0,0,.3-.37l.8-1.12,2.89-4.13,1-1.36.26-.33v0h0s0,0,0-.08c.05.1.05.07.05.07h.06l.21,0,.91-.13c1.24-.15,2.58-.27,4-.35.71,0,1.43-.07,2.16-.07a9.92,9.92,0,0,1,2.19.2,7.71,7.71,0,0,1,1,.46l1.06.52,2.17,1.05-.11-.16a1.25,1.25,0,0,1,0,.37,2,2,0,0,1-1.74,1.45,17.38,17.38,0,0,1-2.52.18c-1.67,0-3.28,0-4.79,0h-.11l-.06.08c-.59.88-1.17,1.72-1.71,2.53l0,.05v.07a10.09,10.09,0,0,1-.64,4.33,7.3,7.3,0,0,1-1.9,2.77A12.44,12.44,0,0,1,311.35,215.31Z" style="fill:#ff9a6c"></path><path d="M306.06,206.29l-29.22,4.37-8.07-27.83L259,224.47l6,4.08a15.24,15.24,0,0,0,12.8,2l33.23-9Z" style="fill:#FF725E"></path><path d="M258,166.9l2.8.13,1.58.65a64.92,64.92,0,0,1,8.22,28.66l.47,10.78-.16,67.9-23-3.18L245,252.12Z" style="fill:#FF725E"></path><path d="M270.22,270.18s0-22.63.17-31.22-2.46-39.68-2.46-39.68-9.67,63.33-9.33,63.43S270.22,270.18,270.22,270.18Z" style="opacity:0.30000000000000004"></path><path d="M267.27,181.86a2.56,2.56,0,0,1,.17.48c.1.38.23.84.38,1.4.3,1.24.67,3,1,5.28.68,4.48,1.14,10.73,1.47,17.63s.47,13.14.65,17.66c.1,2.2.18,4,.24,5.35,0,.58.05,1.06.07,1.45a2.45,2.45,0,0,1,0,.51,1.76,1.76,0,0,1-.1-.5c0-.39-.1-.87-.16-1.45-.13-1.26-.27-3.08-.41-5.34-.27-4.52-.49-10.77-.8-17.66s-.73-13.12-1.31-17.6c-.28-2.24-.59-4-.82-5.28l-.3-1.43A1.57,1.57,0,0,1,267.27,181.86Z" style="fill:#263238"></path><path d="M226.16,390l-1.6,12.51.2,1.61s20.2,3.95,21,7.43l-36.82,6-1.42-8.45,2-20.61Z" style="fill:#263238"></path><path d="M213.12,404.42a1.52,1.52,0,0,0-.76,1.88,1.45,1.45,0,0,0,1.86.77,1.6,1.6,0,0,0,.79-2,1.5,1.5,0,0,0-2-.58" style="fill:#e0e0e0"></path><path d="M208.93,417.6l-.38-3L244,410s1.76.45,1.76,1.63Z" style="fill:#455a64"></path><path d="M225.33,403.87c0,.18-.86.41-1.65,1.13s-1.14,1.56-1.32,1.51-.08-1.12.9-2S225.34,403.7,225.33,403.87Z" style="fill:#fff"></path><path d="M229.45,404.84c.07.17-.66.6-1.14,1.46s-.54,1.69-.72,1.71-.46-1,.17-2S229.42,404.67,229.45,404.84Z" style="fill:#fff"></path><path d="M232.4,409.1c-.16.07-.56-.79-.25-1.85s1.07-1.59,1.17-1.45-.33.75-.56,1.62S232.57,409.06,232.4,409.1Z" style="fill:#fff"></path><path d="M321.28,356.46l.1,12.61.42,1.57s20.55,1.19,21.8,4.53l-35.67,10.92-2.55-8.17-.82-20.69Z" style="fill:#263238"></path><path d="M310.3,372.47a1.53,1.53,0,0,0-.5,2,1.46,1.46,0,0,0,1.95.51,1.61,1.61,0,0,0,.52-2.09,1.52,1.52,0,0,0-2.09-.3" style="fill:#e0e0e0"></path><path d="M307.93,386.09l-.78-2.92,34.49-9.37s1.8.2,2,1.37Z" style="fill:#455a64"></path><path d="M322.33,370.28c0,.18-.8.52-1.49,1.34s-.92,1.7-1.1,1.68-.23-1.11.62-2.09S322.31,370.11,322.33,370.28Z" style="fill:#fff"></path><path d="M326.54,370.68c.09.16-.57.69-.94,1.6s-.3,1.75-.47,1.8-.59-.91-.11-2S326.49,370.52,326.54,370.68Z" style="fill:#fff"></path><path d="M330,374.51c-.15.08-.66-.71-.5-1.8s.85-1.72,1-1.6-.23.79-.35,1.69S330.2,374.44,330,374.51Z" style="fill:#fff"></path><path d="M240.6,166.91l-1.72-37.6c-.74-9.34,4.09-17.55,13.45-18h.86a16.75,16.75,0,0,1,16.58,15.53c.59,8.1,1.14,17.05,1.05,21.4-.18,9-9.18,10.31-9.18,10.31s.13,5.47.22,8.1l2.32,6.09-7.45-1.55Z" style="fill:#ffbf9d"></path><path d="M261.64,158.53A21.71,21.71,0,0,1,250,155s2.77,6.78,11.74,6Z" style="fill:#ff9a6c"></path><path d="M266.82,134.64a1.28,1.28,0,0,1-1.25,1.28,1.22,1.22,0,0,1-1.31-1.16,1.28,1.28,0,0,1,1.25-1.29A1.23,1.23,0,0,1,266.82,134.64Z" style="fill:#263238"></path><path d="M267.83,130.78c-.16.16-1.13-.57-2.51-.57s-2.4.67-2.55.5.09-.37.54-.69a3.48,3.48,0,0,1,2-.61,3.33,3.33,0,0,1,2,.66C267.77,130.4,267.91,130.7,267.83,130.78Z" style="fill:#263238"></path><path d="M254.21,134.84a1.28,1.28,0,0,1-1.25,1.28,1.23,1.23,0,0,1-1.32-1.16,1.29,1.29,0,0,1,1.25-1.29A1.23,1.23,0,0,1,254.21,134.84Z" style="fill:#263238"></path><path d="M254.28,131c-.16.17-1.12-.56-2.5-.57s-2.4.68-2.55.51.09-.38.53-.7a3.58,3.58,0,0,1,2-.61,3.43,3.43,0,0,1,2,.66C254.22,130.61,254.36,130.92,254.28,131Z" style="fill:#263238"></path><path d="M259.16,141.64a9.36,9.36,0,0,1,2.24-.38c.36,0,.69-.1.75-.35a1.78,1.78,0,0,0-.22-1l-1-2.7c-1.42-3.83-2.44-7-2.28-7a47,47,0,0,1,2.85,6.84l1,2.71a2.08,2.08,0,0,1,.18,1.39.9.9,0,0,1-.59.51,2.26,2.26,0,0,1-.6.08A8.91,8.91,0,0,1,259.16,141.64Z" style="fill:#263238"></path><path d="M254.77,126.67c-.2.35-1.53,0-3.16-.07s-3,.19-3.16-.17c-.07-.18.21-.49.78-.77a5.45,5.45,0,0,1,4.81.18C254.6,126.17,254.85,126.51,254.77,126.67Z" style="fill:#263238"></path><path d="M267.92,126.71c-.28.32-1.41,0-2.76,0s-2.5.23-2.76-.1c-.12-.16.06-.47.56-.78a4.51,4.51,0,0,1,2.24-.53,4.27,4.27,0,0,1,2.21.62C267.89,126.24,268.05,126.56,267.92,126.71Z" style="fill:#263238"></path><path d="M239.56,136c-.15-.06-6.16-1.87-6,4.28s6.29,4.73,6.29,4.55S239.56,136,239.56,136Z" style="fill:#ffbf9d"></path><path d="M237.91,142.52s-.11.07-.29.16a1,1,0,0,1-.8,0,2.68,2.68,0,0,1-1.28-2.35,3.62,3.62,0,0,1,.26-1.54,1.21,1.21,0,0,1,.79-.84.53.53,0,0,1,.64.28c.08.17.05.29.08.3s.13-.11.07-.36a.65.65,0,0,0-.25-.38.79.79,0,0,0-.59-.14,1.5,1.5,0,0,0-1.1,1,3.68,3.68,0,0,0-.33,1.72,2.78,2.78,0,0,0,1.63,2.62,1.14,1.14,0,0,0,1-.19C237.9,142.66,237.93,142.53,237.91,142.52Z" style="fill:#ff9a6c"></path><path d="M254.85,142.64c.21,0,.27,1.39,1.52,2.35s2.74.74,2.76.94-.33.29-1,.33a3.52,3.52,0,0,1-2.3-.71,3,3,0,0,1-1.18-2C254.61,143,254.76,142.64,254.85,142.64Z" style="fill:#263238"></path><path d="M281.9,118.32a1.45,1.45,0,0,0-.7-.84,4.54,4.54,0,0,0-2.31-.32,12.92,12.92,0,0,1-5.66-1.29,6.39,6.39,0,0,0,1.63-1.19,3.89,3.89,0,0,0,1-3.87.84.84,0,0,0-.5-.57c-.4-.12-.74.28-1,.6a3.32,3.32,0,0,1-3.1,1.39,5.21,5.21,0,0,1-2.35-.64.6.6,0,0,1-.08-.08l-1-.93h0a20.47,20.47,0,0,0-6.46-4.57,20.81,20.81,0,0,0-11.17-.62c-3.11.89-5.86,3.49-6.23,6.7-1.78-1.44-4.42-1.37-6.54-.46l-.05,0c-2.36.91-3.66,3.45-4.31,5.89,0,.14-.06.27-.1.41a9.39,9.39,0,0,1-3.13,3.2c-.23.14-.49.31-.51.57s.21.48.42.63a4.7,4.7,0,0,0,1.95.75,11.13,11.13,0,0,1-.75,1.69c-.26.46-.57,1-.32,1.48a1,1,0,0,0,1.06.44,2.91,2.91,0,0,0,1.09-.53l-.75,1.93a5.65,5.65,0,0,0,2.58-.23c.56,2.26,1,6.45,1.65,8,1.64,0,2-.2,2.86.06,1.07.33.71,2.22,2.08,1.66.7-.29,1.72-3,1.94-3.71a35.08,35.08,0,0,0,1.19-14.9,11.34,11.34,0,0,1,3.43-2.59l-.1.1c2.49-.93,5.31-1.85,7.72-.72,1.87.87,3,2.77,4.42,4.27a12.9,12.9,0,0,0,9.6,4.41c.41,2.7.62,7.14.81,9.67l2.05-5.12v0c.17-.3.3-.6.44-.9l0-.1h0a15.75,15.75,0,0,1,.68-1.45l0,0a1.58,1.58,0,0,0,2.26-2.17,3.47,3.47,0,0,0-.78-.75,2.52,2.52,0,0,0,2.4.56,2,2,0,0,0,1.34-2,1.68,1.68,0,0,0-1-1.32,5.57,5.57,0,0,0,3.19-.78C281.53,119.72,282.13,119.11,281.9,118.32Z" style="fill:#263238"></path><path d="M246.89,113.06a9.25,9.25,0,0,0-.88.85,6.46,6.46,0,0,0-1.32,3,11,11,0,0,0-.18,2.29c0,.83.1,1.71.19,2.65a23.32,23.32,0,0,1,.13,2.94,10.61,10.61,0,0,1-.17,1.57,3.2,3.2,0,0,1-.6,1.52,1.32,1.32,0,0,1-1.26.45,2,2,0,0,1-1.16-.62,4.65,4.65,0,0,1-.91-2.26h.18a7.2,7.2,0,0,1-1,1.91,2.72,2.72,0,0,1-1.73,1,1.73,1.73,0,0,1-.93-.15,1.49,1.49,0,0,1-.64-.6,1.55,1.55,0,0,1-.21-.8,1.14,1.14,0,0,1,.27-.7l.1.08a5.69,5.69,0,0,1-1.9,1.49,5,5,0,0,1-.59.25L234,128a.75.75,0,0,1,.2-.09l.58-.28a6,6,0,0,0,1.83-1.51l.1.08a1.15,1.15,0,0,0,0,1.34,1.32,1.32,0,0,0,.58.54,1.69,1.69,0,0,0,.84.12,2.52,2.52,0,0,0,1.61-1,7.52,7.52,0,0,0,1-1.86l.12-.29.07.31a4.46,4.46,0,0,0,.87,2.16,1.81,1.81,0,0,0,1,.56,1.14,1.14,0,0,0,1.07-.39,3.1,3.1,0,0,0,.56-1.42,11.69,11.69,0,0,0,.16-1.53,23.37,23.37,0,0,0-.12-2.93c-.08-.93-.16-1.82-.16-2.66a11.94,11.94,0,0,1,.2-2.32,6.47,6.47,0,0,1,1.4-3.05A3.64,3.64,0,0,1,246.89,113.06Z" style="fill:#455a64"></path><path d="M274.92,121.2l-.07.06-.23.17a2,2,0,0,1-.37.25,3.35,3.35,0,0,1-.54.3,8,8,0,0,1-3.84.78,10.17,10.17,0,0,1-5.47-1.88,17.67,17.67,0,0,1-4.79-5.28c-.68-1.07-1.23-2.18-1.84-3.19a12.1,12.1,0,0,0-2.08-2.7,6,6,0,0,0-2.62-1.51,4.33,4.33,0,0,0-1.37-.13,4.56,4.56,0,0,0-1.25.27,5.07,5.07,0,0,0-1.85,1.17,5,5,0,0,0-1,1.34,5.84,5.84,0,0,0-.43,1.36v-.1c0-.07,0-.16,0-.27a4.74,4.74,0,0,1,.32-1,5.17,5.17,0,0,1,1-1.39,5.24,5.24,0,0,1,1.88-1.22,4.7,4.7,0,0,1,1.28-.29,4.38,4.38,0,0,1,1.43.12,6.22,6.22,0,0,1,2.72,1.54,12,12,0,0,1,2.11,2.73c.62,1,1.18,2.13,1.85,3.19a17.67,17.67,0,0,0,4.72,5.23,10.08,10.08,0,0,0,5.37,1.89,8.06,8.06,0,0,0,3.79-.7A13.33,13.33,0,0,0,274.92,121.2Z" style="fill:#455a64"></path><path d="M275.65,117.23a1.74,1.74,0,0,1-.32.23,6.87,6.87,0,0,1-.95.51,9.9,9.9,0,0,1-1.5.53,11.85,11.85,0,0,1-1.93.3,11.15,11.15,0,0,1-1.95-.09,9.84,9.84,0,0,1-1.55-.37,6.2,6.2,0,0,1-1-.4c-.23-.11-.35-.18-.34-.2s.52.21,1.38.46a10.28,10.28,0,0,0,1.53.31,11.76,11.76,0,0,0,1.91.08,13.12,13.12,0,0,0,1.9-.28,12.52,12.52,0,0,0,1.49-.48C275.15,117.49,275.63,117.19,275.65,117.23Z" style="fill:#455a64"></path><path d="M222,285.74l-7.41,46.4s-9.62,57.58-9.87,69.18l24.84.47s7.22-54.74,12-62.79,14.95-72.22,14.95-72.22Z" style="fill:#263238"></path><path d="M259.1,262s49.93,26.66,53.84,33,11.6,72.7,11.6,72.7l-22.31,7.94-11.1-60.62-53.77-20s-14.39-5.78-21.13-12.37-4.89-18.73-4.89-18.73l4.65-6,45.39-7.91Z" style="fill:#263238"></path><path d="M226.2,291.39a2.78,2.78,0,0,0,.64.29l1.87.72,6.92,2.58,22.8,8.55c8.91,3.34,17,6.32,22.86,8.4,2.94,1.05,5.32,1.87,7,2.42l1.9.63a3,3,0,0,0,.68.18,4.1,4.1,0,0,0-.64-.28l-1.87-.72-6.92-2.58L258.62,303c-8.91-3.35-17-6.32-22.86-8.41-2.94-1-5.32-1.87-7-2.42l-1.9-.62A4.83,4.83,0,0,0,226.2,291.39Z" style="fill:#455a64"></path><path d="M259.36,262.19a57.1,57.1,0,0,1-6-1.44c-3.29-.84-6-1.3-6-1.44a22.56,22.56,0,0,1,6.12.93A27.52,27.52,0,0,1,259.36,262.19Z" style="fill:#455a64"></path><path d="M263.79,170.09l-2-4.93-.84,1.25-.78-1.29-21.37-9.58L237,160l-7,2.69A13.67,13.67,0,0,0,221.46,173l-2.61,31.49.07,5.1L218.18,227c.67,1.14-8.16,14.31-8.42,19s4.48,8.57,4.48,8.57l47.06,3.57s2.38.35,4.35-4c1.72-3.81,1.58-29.92,1.58-29.92s.11-14,.57-23.56a94.12,94.12,0,0,0-1.46-17.17Z" style="fill:#ebebeb"></path><path d="M236.08,159.57l1.91-3.11s9.58,6.71,12,13.56,2.41,37.1,1.16,45.51c-1.36,9.08-2.15,19.9-16.55,35.11-16.56,17.5-10.4,35.88-13.71,37.2,0,0-25.44-8.15-25-11,2-14.05,19.44-45.51,19.59-45.92l2.55-28.2-.29-33.38h0c4-2.7,6.09-4.92,9.82-6.15Z" style="fill:#FF725E"></path><polygon points="238.03 188.43 216.46 219.49 217.42 208.91 238.03 188.43" style="opacity:0.30000000000000004"></polygon><path d="M247.77,229a6.23,6.23,0,0,1,.15-.76c.11-.55.27-1.26.46-2.16.37-1.88.87-4.61,1.22-8,.17-1.7.31-3.57.33-5.58a58.2,58.2,0,0,0-.35-6.41c-.41-4.52-.85-9.48-1.32-14.69-.34-4-.68-7.77-1-11.33V180l0-.07,2.25-4.35.16.33-2.46-.63-.08,0,0-.06c-3.24-4.73-6-8.65-7.9-11.38-1-1.36-1.73-2.42-2.28-3.13-.27-.36-.49-.62-.63-.8s-.24-.25-.23-.26,1.37,1.35,3.36,4,4.78,6.57,8.05,11.27l-.13-.09,2.46.62.29.07-.14.26-2.23,4.37,0-.14c.32,3.56.66,7.38,1,11.33.45,5.22.88,10.18,1.28,14.71a58,58,0,0,1,.3,6.45c0,2-.2,3.9-.39,5.61a70.86,70.86,0,0,1-1.4,8c-.22.94-.41,1.66-.55,2.14A3.63,3.63,0,0,1,247.77,229Z" style="fill:#263238"></path><path d="M216.51,244s-.13.15-.38.37l-1.13.94-4.12,3.33-.07-.34,13.46,4-.24.05.08-.07,5.69-5,.1.42-9.6-2.59-2.78-.79a5.68,5.68,0,0,1-1-.34,6.18,6.18,0,0,1,1,.18l2.78.65c2.38.57,5.77,1.41,9.74,2.41l.45.12-.35.3-5.67,5-.08.07-.11.1-.13,0-13.43-4.1-.37-.11.31-.23,4.29-3.22A18,18,0,0,1,216.51,244Z" style="fill:#263238"></path><path d="M264.55,173.53c-.06,0-.37-.62-1.1-1.59l-1.34-1.72a11.69,11.69,0,0,1-1.49-2.41l.42.05-2.29,3c-.6.79-1.18,1.54-1.72,2.26l-.13.16-.18-.09c-2.06-1-3.85-1.79-5.1-2.41a10.61,10.61,0,0,1-2-1.07,12.16,12.16,0,0,1,2.1.78c1.29.54,3.1,1.32,5.18,2.25l-.3.07,1.7-2.26,2.32-3,.26-.33.16.38a29,29,0,0,0,2.63,4.15A5.12,5.12,0,0,1,264.55,173.53Z" style="fill:#263238"></path><path d="M260.92,167.89a1,1,0,0,1,.08.23l.18.68c.15.6.36,1.49.61,2.63.49,2.3,1.13,5.64,1.82,9.79.34,2.07.69,4.34,1,6.79.17,1.22.36,2.49.47,3.81s.15,2.68.17,4.07c.05,2.78,0,5.7-.09,8.72s-.21,6.15-.44,9.35c-.45,6.4-1.23,12.46-1.94,18s-1.43,10.46-2.3,14.58-1.82,7.39-2.49,9.64c-.34,1.12-.62,2-.81,2.58l-.23.66a.92.92,0,0,1-.09.23.61.61,0,0,1,0-.24l.18-.68c.17-.64.41-1.51.71-2.61.61-2.26,1.51-5.54,2.32-9.65s1.52-9.06,2.2-14.57,1.45-11.56,1.89-18c.23-3.19.36-6.31.45-9.33s.16-5.93.12-8.7c0-1.38-.06-2.73-.15-4s-.28-2.57-.44-3.79c-.32-2.45-.65-4.72-1-6.8-.63-4.14-1.22-7.49-1.65-9.8-.22-1.11-.39-2-.51-2.65l-.13-.69A.74.74,0,0,1,260.92,167.89Z" style="fill:#263238"></path><path d="M192.56,273.33a16.92,16.92,0,0,1,.24,4c-.21,1.4-2.57,6.35-2.57,6.35s-1.33.09-1-3.22a26.58,26.58,0,0,1,.84-4.74Z" style="fill:#ffbf9d"></path><path d="M171.42,298.8s-.53-20.36,3.86-23.23,10.72-5.21,12.9-2.45a36,36,0,0,1,6,11.74,77,77,0,0,1,1.95,12.1l-5.44.13s-2.44-20-4.47-22.77-9.95.75-10.37,4.44-.24,19.93-.24,19.93Z" style="fill:#455a64"></path><path d="M156.59,329.61c-.87-8.31-2.54-26.67-3.27-34.74a4.11,4.11,0,0,1,3.56-4.45l49.26-6.36a4.12,4.12,0,0,1,4.59,3.41l5.56,33.86a4.12,4.12,0,0,1-3.49,4.74l-51.55,7.18A4.1,4.1,0,0,1,156.59,329.61Z" style="fill:#455a64"></path><path d="M188.43,282.63l4.14-9.14-.19-11.08-12.29-1.47-4.53,10.2s-.39,5.5,0,6.75,2.28,1.24,2.28,1.24c.28,1.71,2.83,2.21,2.83,2.21.57,1.86,2.91,1.33,2.91,1.33s.95,2.1,1.71,2.32a1.58,1.58,0,0,0,1-.16A4.31,4.31,0,0,0,188.43,282.63Z" style="fill:#ffbf9d"></path><path d="M178,276.37c.12,0,.17.61.12,1.35s-.2,1.33-.33,1.32-.17-.62-.12-1.35S177.88,276.36,178,276.37Z" style="fill:#ff9a6c"></path><path d="M181,277.48a6.56,6.56,0,0,1-.14,2,7,7,0,0,1-.31,1.95,5.59,5.59,0,0,1,.45-3.91Z" style="fill:#ff9a6c"></path><path d="M184.2,279.2c.12.05-.09.79-.29,1.71s-.33,1.67-.46,1.67a2.81,2.81,0,0,1,0-1.77C183.68,279.85,184.09,279.15,184.2,279.2Z" style="fill:#ff9a6c"></path><path d="M191.21,276.33a16.92,16.92,0,0,1-1.34,3.58,16.73,16.73,0,0,1-1.74,3.39,31.61,31.61,0,0,1,3.08-7Z" style="fill:#ff9a6c"></path><path d="M178.63,274.44c0,.06-.11.16-.37.19a1.36,1.36,0,0,1-.95-.24,1.35,1.35,0,0,1-.55-.81c-.06-.25,0-.4.05-.41s.27.52.76.86S178.6,274.32,178.63,274.44Z" style="fill:#ff9a6c"></path><path d="M181.8,276.45c0,.06-.14.14-.41.16a1.78,1.78,0,0,1-1-.31,1.67,1.67,0,0,1-.65-.83c-.09-.26-.06-.43,0-.44s.33.52.9.9S181.79,276.33,181.8,276.45Z" style="fill:#ff9a6c"></path><path d="M188.62,278.55c.06,0,.16.36-.28.64a2.11,2.11,0,0,1-1.66.08,2.61,2.61,0,0,1-1.33-1c-.24-.35-.27-.62-.22-.64a5.12,5.12,0,0,0,1.69,1.19,2.37,2.37,0,0,0,1.38.06C188.51,278.8,188.56,278.55,188.62,278.55Z" style="fill:#ff9a6c"></path><path d="M212.58,320.93s0-.09-.08-.28-.1-.5-.18-.86l-.66-3.29c-.56-2.9-1.35-7-2.33-12.13-.49-2.56-1-5.36-1.58-8.37-.29-1.51-.58-3.07-.88-4.67-.08-.4-.15-.81-.23-1.21l-.12-.6a.91.91,0,0,0-.23-.46,1,1,0,0,0-.93-.35l-1.27.17-22.24,2.89-22.24,2.86a3.9,3.9,0,0,0-1.16.23,1.06,1.06,0,0,0-.53.85c0,.77.11,1.64.16,2.44.12,1.63.23,3.21.34,4.74q.32,4.59.59,8.51c.35,5.17.63,9.37.83,12.32.09,1.42.15,2.54.2,3.35l0,.87a1.36,1.36,0,0,1,0,.3,1.4,1.4,0,0,1,0-.3l-.09-.86c-.08-.81-.17-1.93-.3-3.35-.24-2.94-.58-7.14-1-12.31-.21-2.6-.43-5.44-.66-8.5-.12-1.53-.24-3.11-.37-4.73-.05-.83-.14-1.61-.17-2.52a1.54,1.54,0,0,1,.76-1.22,1.71,1.71,0,0,1,.69-.21l.64-.08,22.25-2.9L204,288.4l1.27-.16a1.53,1.53,0,0,1,1.68,1.17l.12.62c.07.41.14.81.22,1.21.29,1.61.58,3.17.85,4.68.55,3,1.06,5.82,1.52,8.39.91,5.1,1.65,9.25,2.17,12.15.24,1.41.43,2.52.56,3.31.06.36.1.64.14.87A1.27,1.27,0,0,1,212.58,320.93Z" style="fill:#263238"></path><rect x="176.98" y="296.82" width="12.72" height="3.22" rx="0.52" transform="translate(-35.09 24.64) rotate(-7.02)" style="fill:#263238"></rect><path d="M233.33,193l-29.79,29.61-8,41.71-18-2.15,6.6-41a41,41,0,0,1,7.53-17.91L214,173a17,17,0,0,1,13.1-7.35,12.12,12.12,0,0,1,8.33,3.18c4.5,4.85,4.12,11.26,4,13.21" style="fill:#FF725E"></path><path d="M239.4,182a15.77,15.77,0,0,0,.13-2.44,17.84,17.84,0,0,0-1.4-6.84,14,14,0,0,0-2.81-4.23A11.75,11.75,0,0,0,230,165.8a13.3,13.3,0,0,0-6.9.36,17.06,17.06,0,0,0-6.72,3.89,19.59,19.59,0,0,0-2.74,3.18l-2.6,3.5-5.51,7.43-12.15,16.38c-1.06,1.45-2.18,2.88-3.2,4.43a41.56,41.56,0,0,0-6.21,15.91c-1.24,7.72-2.53,15.71-3.85,23.89-.94,5.89-1.87,11.68-2.78,17.32l0,.27.27,0,18,2.14.24,0,0-.23c3-15.65,5.7-29.81,8-41.72l-.06.11L225.39,201l5.91-6,1.53-1.55c.34-.36.5-.55.5-.55s-.19.16-.54.5L231.22,195l-6,5.87L203.4,222.44l0,0v.07c-2.31,11.9-5,26-8.09,41.69l.28-.2-18-2.16.23.3c.91-5.65,1.84-11.44,2.79-17.32,1.31-8.19,2.59-16.18,3.83-23.9a41.07,41.07,0,0,1,3.41-10.88,39.9,39.9,0,0,1,2.71-4.83c1-1.53,2.11-3,3.17-4.42,4.27-5.78,8.32-11.27,12.11-16.42l5.49-7.44,2.59-3.51a20.38,20.38,0,0,1,2.67-3.14,16.74,16.74,0,0,1,6.57-3.83,12.84,12.84,0,0,1,6.74-.4,11.38,11.38,0,0,1,5.25,2.62,13.83,13.83,0,0,1,2.8,4.12,18,18,0,0,1,1.48,6.77c0,.79,0,1.4,0,1.81S239.4,182,239.4,182Z" style="fill:#263238"></path></g></svg>
